<?xml version="1.0" encoding="UTF-8"?>
<!-- Generated by Pixelmator Pro 3.7.1 -->
<svg width="1025" height="182" viewBox="0 0 1025 182" xmlns="http://www.w3.org/2000/svg">
    <text id="DomainLang" xml:space="preserve" x="148" y="143" font-family="Helvetica Neue" font-size="144" font-weight="700" fill="#ffffff">DomainLang</text>
    <g id="Group-copy">
        <g id="Group">
            <path id="Path" fill="#00e5fc" stroke="none" d="M 36.180077 12 L 22.386126 25.794022 L 22.386126 64.394981 L 36.180077 50.600952 L 76.807266 91.228111 L 36.180077 131.855347 L 22.386126 118.06131 L 22.386126 156.662277 L 36.180077 170.456299 L 115.408226 91.228111 L 36.180077 12 Z"/>
        </g>
        <g id="g1">
            <linearGradient id="linearGradient1" x1="22.386119" y1="6.976539" x2="115.408226" y2="6.976539" gradientUnits="userSpaceOnUse">
                <stop offset="0" stop-color="#027fff" stop-opacity="1"/>
                <stop offset="1" stop-color="#027fff" stop-opacity="0"/>
            </linearGradient>
            <path id="path1" fill="url(#linearGradient1)" stroke="none" d="M 36.180077 12 L 22.386126 25.794022 L 22.386126 64.394981 L 36.180077 50.600952 L 76.807266 91.228111 L 36.180077 131.855347 L 22.386126 118.06131 L 22.386126 156.662277 L 36.180077 170.456299 L 115.408226 91.228111 L 36.180077 12 Z"/>
        </g>
        <g id="g2">
            <path id="path2" fill="#00e5fc" stroke="none" d="M 36.180077 12 L 36.180077 170.456299 L 8.88501 170.456299 L 8.88501 12 L 36.180077 12 Z"/>
        </g>
        <path id="path3" fill="none" stroke="none" d="M 36.180077 12 L 36.180077 170.456299 L 8.88501 170.456299 L 8.88501 12 L 36.180077 12 Z"/>
    </g>
</svg>
