<?xml version="1.0" encoding="UTF-8"?>
<!-- Generated by Pixelmator Pro 3.7.1 -->
<svg width="1024" height="1024" viewBox="0 0 1024 1024" xmlns="http://www.w3.org/2000/svg">
    <g id="Group-copy">
        <g id="Group">
            <path id="Path" fill="#00e5fc" stroke="none" d="M 427.113678 48 L 346.329346 128.78479 L 346.329346 354.85144 L 427.113678 274.06665 L 665.046997 511.999756 L 427.113678 749.93335 L 346.329346 669.14856 L 346.329346 895.21521 L 427.113678 976 L 891.113647 511.999756 L 427.113678 48 Z"/>
        </g>
        <g id="g1">
            <linearGradient id="linearGradient1" x1="346.329304" y1="18.580078" x2="891.113677" y2="18.580078" gradientUnits="userSpaceOnUse">
                <stop offset="0" stop-color="#027fff" stop-opacity="1"/>
                <stop offset="1" stop-color="#027fff" stop-opacity="0"/>
            </linearGradient>
            <path id="path1" fill="url(#linearGradient1)" stroke="none" d="M 427.113678 48 L 346.329346 128.78479 L 346.329346 354.85144 L 427.113678 274.06665 L 665.046997 511.999756 L 427.113678 749.93335 L 346.329346 669.14856 L 346.329346 895.21521 L 427.113678 976 L 891.113647 511.999756 L 427.113678 48 Z"/>
        </g>
        <g id="g2">
            <path id="path2" fill="#00e5fc" stroke="none" d="M 427.113678 48 L 427.113678 976 L 267.26001 976 L 267.26001 48 L 427.113678 48 Z"/>
        </g>
        <path id="path3" fill="none" stroke="none" d="M 427.113678 48 L 427.113678 976 L 267.26001 976 L 267.26001 48 L 427.113678 48 Z"/>
    </g>
</svg>
