<?xml version="1.0" encoding="UTF-8"?>
<!-- Generated by Pixelmator Pro 3.7.1 -->
<svg width="887" height="160" viewBox="0 0 887 160" xmlns="http://www.w3.org/2000/svg">
    <text id="DomainLang" xml:space="preserve" x="140" y="131" font-family="Helvetica Neue" font-size="144" font-weight="200" fill="#000000">DomainLang</text>
    <g id="Group-copy">
        <g id="Group">
            <path id="Path" fill="#00e5fc" stroke="none" d="M 28.180077 0 L 14.386125 13.794022 L 14.386125 52.394981 L 28.180077 38.60096 L 68.807266 79.228111 L 28.180077 119.855339 L 14.386125 106.06131 L 14.386125 144.662277 L 28.180077 158.456299 L 107.408226 79.228111 L 28.180077 0 Z"/>
        </g>
        <g id="g1">
            <linearGradient id="linearGradient1" x1="14.386119" y1="-5.023461" x2="107.408226" y2="-5.023461" gradientUnits="userSpaceOnUse">
                <stop offset="0" stop-color="#027fff" stop-opacity="1"/>
                <stop offset="1" stop-color="#027fff" stop-opacity="0"/>
            </linearGradient>
            <path id="path1" fill="url(#linearGradient1)" stroke="none" d="M 28.180077 0 L 14.386125 13.794022 L 14.386125 52.394981 L 28.180077 38.60096 L 68.807266 79.228111 L 28.180077 119.855339 L 14.386125 106.06131 L 14.386125 144.662277 L 28.180077 158.456299 L 107.408226 79.228111 L 28.180077 0 Z"/>
        </g>
        <g id="g2">
            <path id="path2" fill="#00e5fc" stroke="none" d="M 28.180077 0 L 28.180077 158.456299 L 0.88501 158.456299 L 0.88501 0 L 28.180077 0 Z"/>
        </g>
        <path id="path3" fill="none" stroke="none" d="M 28.180077 0 L 28.180077 158.456299 L 0.88501 158.456299 L 0.88501 0 L 28.180077 0 Z"/>
    </g>
</svg>
